HIERARCHY
ROOT reference
{
  OFFSET 0 0 0
  CHANNELS 6 Xposition Yposition Zposition Zrotation Xrotation Yrotation
  JOINT Hips
  {
    OFFSET 0 97.8064 0
    CHANNELS 6 Xposition Yposition Zposition Zrotation Xrotation Yrotation
    JOINT ToSpine
    {
      OFFSET -2.69724 7.43032 -0.144315
      CHANNELS 6 Xposition Yposition Zposition Zrotation Xrotation Yrotation
      JOINT Spine
      {
        OFFSET -0.0310711 10.7595 1.96963
        CHANNELS 6 Xposition Yposition Zposition Zrotation Xrotation Yrotation
        JOINT Spine1
        {
          OFFSET 13.1342 3.43533 0.764692
          CHANNELS 6 Xposition Yposition Zposition Zrotation Xrotation Yrotation
          JOINT Neck
          {
            OFFSET 29.8703 7.82586 -0.130764
            CHANNELS 6 Xposition Yposition Zposition Zrotation Xrotation Yrotation
            JOINT Head
            {
              OFFSET 9.52751 0.295786 -0.907742
              CHANNELS 6 Xposition Yposition Zposition Zrotation Xrotation Yrotation
              End Site
              {
                OFFSET 16.4037 0.713936 2.7358
              }
            }
          }
          JOINT LeftShoulder
          {
            OFFSET 27.5574 4.95586 2.47156
            CHANNELS 6 Xposition Yposition Zposition Zrotation Xrotation Yrotation
            JOINT LeftArm
            {
              OFFSET 1.20734 -0.998971 20.1238
              CHANNELS 6 Xposition Yposition Zposition Zrotation Xrotation Yrotation
              JOINT LeftForeArm
              {
                OFFSET 26.8049 -0.0536703 -0.155908
                CHANNELS 6 Xposition Yposition Zposition Zrotation Xrotation Yrotation
                JOINT LeftHand
                {
                  OFFSET 26.6817 0 0.320147
                  CHANNELS 6 Xposition Yposition Zposition Zrotation Xrotation Yrotation
                  End Site
                  {
                    OFFSET 18.6119 0 0.382219
                  }
                }
              }
            }
          }
          JOINT RightShoulder
          {
            OFFSET 27.5927 4.71444 -2.65209
            CHANNELS 6 Xposition Yposition Zposition Zrotation Xrotation Yrotation
            JOINT RightArm
            {
              OFFSET 2.83739 -1.17114 -18.7564
              CHANNELS 6 Xposition Yposition Zposition Zrotation Xrotation Yrotation
              JOINT RightForeArm
              {
                OFFSET 28.839 -0.0548439 1.22491
                CHANNELS 6 Xposition Yposition Zposition Zrotation Xrotation Yrotation
                JOINT RightHand
                {
                  OFFSET 26.5114 0 -0.101894
                  CHANNELS 6 Xposition Yposition Zposition Zrotation Xrotation Yrotation
                  End Site
                  {
                    OFFSET 18.2168 0 0
                  }
                }
              }
            }
          }
        }
      }
    }
    JOINT LeftUpLeg
    {
      OFFSET -4.76168 -1.9167 -10.2353
      CHANNELS 6 Xposition Yposition Zposition Zrotation Xrotation Yrotation
      JOINT LeftLeg
      {
        OFFSET 2.55951 -42.0585 -8.02213
        CHANNELS 6 Xposition Yposition Zposition Zrotation Xrotation Yrotation
        JOINT LeftFoot
        {
          OFFSET 3.16357 -42.5282 -3.95426
          CHANNELS 6 Xposition Yposition Zposition Zrotation Xrotation Yrotation
          JOINT LeftToeBase
          {
            OFFSET 0.346054 -6.02161 12.8035
            CHANNELS 6 Xposition Yposition Zposition Zrotation Xrotation Yrotation
            End Site
            {
              OFFSET 0.134235 -1.35082 5.13018
            }
          }
        }
      }
    }
    JOINT RightUpLeg
    {
      OFFSET -4.94151 -1.41743 10.6446
      CHANNELS 6 Xposition Yposition Zposition Zrotation Xrotation Yrotation
      JOINT RightLeg
      {
        OFFSET -2.56294 -42.0364 -7.94377
        CHANNELS 6 Xposition Yposition Zposition Zrotation Xrotation Yrotation
        JOINT RightFoot
        {
          OFFSET -3.0952 -42.555 -4.02241
          CHANNELS 6 Xposition Yposition Zposition Zrotation Xrotation Yrotation
          JOINT RightToeBase
          {
            OFFSET -0.0828122 -6.13587 12.8035
            CHANNELS 6 Xposition Yposition Zposition Zrotation Xrotation Yrotation
            End Site
            {
              OFFSET -0.131328 -1.35082 5.13018
            }
          }
        }
      }
    }
  }
}
MOTION
Frames:	7
Frame Time:	0.0333333
0 0 0 0 0 -0 0 97.8064 0 -9.21641 -69.4912 -99.4257 -2.69724 7.43032 -0.144315 -70.1915 -6.18407e-015 88.8779 -0.0310711 10.7595 1.96963 64.9783 69.5887 25.2871 13.1342 3.43533 0.764692 4.60351 20.8703 1.40837 29.8703 7.82586 -0.130764 -158.867 19.9774 178.863 9.52751 0.295786 -0.907742 -163.551 59.618 -171.956 27.5574 4.95586 2.47156 3.81932 1.88815 -1.18989 1.20734 -0.998971 20.1238 -90 -2.89528e-014 -90 26.8049 -0.0536703 -0.155908 -2.27865e-008 -1.09882e-007 -6.77748e-008 26.6817 -2.84217e-014 0.320147 -4.83776e-016 2.19066e-016 -1.61484e-015 27.5927 4.71444 -2.65209 2.06088 1.77022 3.86625 2.83739 -1.17114 -18.7564 -88.2385 5 88.8941 28.839 -0.0548439 1.22491 1.27948e-006 4.79839e-007 0.0043221 26.5114 0 -0.101894 -1.10621e-012 -4.76474e-009 -0.0296889 -4.76168 -1.9167 -10.2353 -54.5197 2.7833 99.4142 2.55951 -42.0585 -8.02213 -1.21668 19.2657 -6.32176 3.16357 -42.5282 -3.95426 3.72058 -5.93042 -0.842831 0.346054 -6.02161 12.8035 0.207147 -0.61891 0.346907 -4.94151 -1.41743 10.6446 -55.5919 -0.189965 81.4537 -2.56294 -42.0364 -7.94377 1.38344 13.6714 6.74024 -3.0952 -42.555 -4.02241 -6.15803 -1.03764 0.970027 -0.0828122 -6.13587 12.8035 1.52296 -4.82373 -7.85573 
0 0 0 0 0 -0 -4.44428 92.9725 -5.67312 72.0338 -25.6327 -6.15483 -2.69724 7.43032 -0.144315 -70.1915 -3.18055e-015 88.8779 -0.0310711 10.7595 1.96963 70.4088 71.7931 12.6234 13.1342 3.43533 0.764692 5.94367 20.3197 7.19558 29.8703 7.82586 -0.130764 -124.706 34.9069 156.557 9.52751 0.295786 -0.907742 172.499 78.0229 -142.826 27.5574 4.95586 2.47156 0.725662 -12.9163 -21.4612 1.20734 -0.998971 20.1238 -60.5165 29.2876 -142.854 26.8049 -0.0536703 -0.155908 22.2551 -3.65232 -98.0748 26.6817 -2.84217e-014 0.320147 4.41391e-032 1.59028e-015 -1.59028e-015 27.5927 4.71444 -2.65209 -1.6915 6.5183 40.4986 2.83739 -1.17114 -18.7564 -134.661 -3.29602 95.1818 28.839 -0.0548439 1.22491 11.7766 -2.64374 77.4158 26.5114 2.84217e-014 -0.101894 0.00402555 1.23469e-005 -0.0290238 -4.76168 -1.9167 -10.2353 -48.3731 15.3229 97.6622 2.55951 -42.0585 -8.02213 -3.11583 43.9337 -7.62501 3.16357 -42.5282 -3.95426 1.3947 -11.6809 -1.05557 0.346054 -6.02161 12.8035 4.48496 -11.9338 14.7676 -4.94151 -1.41743 10.6446 -43.7429 -14.8384 76.4184 -2.56294 -42.0364 -7.94377 1.18499 34.7 -2.53504 -3.0952 -42.555 -4.02241 -2.63859 -4.1226 0.713247 -0.0828122 -6.13587 12.8035 -0.629153 -3.62249 7.95241 
0 0 0 0 0 -0 -4.46312 93.0184 -5.62856 72.06 -25.5897 -6.19553 -2.69724 7.43032 -0.144315 -70.1915 -4.77083e-015 88.8779 -0.0310711 10.7595 1.96963 72.1915 71.7944 11.4027 13.1342 3.43533 0.764692 5.42032 20.4874 6.0438 29.8703 7.82586 -0.130764 -123.632 34.3257 155.087 9.52751 0.295786 -0.907742 176.788 78.2355 -146.578 27.5574 4.95586 2.47156 0.762453 -12.7719 -20.5829 1.20734 -0.998971 20.1238 -59.9826 29.4322 -143.306 26.8049 -0.0536703 -0.155908 22.2303 -3.64708 -98.073 26.6817 -2.84217e-014 0.320147 3.18055e-015 1.19271e-015 -1.59028e-015 27.5927 4.71444 -2.65209 -1.70008 6.35161 41.3403 2.83739 -1.17114 -18.7564 -134.572 -3.08503 95.225 28.839 -0.0548439 1.22491 12.2586 -2.73792 77.4852 26.5114 0 -0.101894 0.0156034 4.68295e-005 -0.0271134 -4.76168 -1.9167 -10.2353 -48.3062 15.319 97.6899 2.55951 -42.0585 -8.02213 -3.13961 44.0215 -7.73833 3.16357 -42.5282 -3.95426 -0.721221 -12.4333 -1.06269 0.346054 -6.02161 12.8035 4.09966 -11.3505 14.7616 -4.94151 -1.41743 10.6446 -43.9782 -14.7675 76.4266 -2.56294 -42.0364 -7.94377 1.15576 34.4876 -2.61648 -3.0952 -42.555 -4.02241 -4.98226 -3.46526 0.909917 -0.0828122 -6.13587 12.8035 0.0844086 -6.72837 6.75219 
0 0 0 0 0 -0 -4.45881 93.0334 -5.65168 71.9938 -25.6205 -6.22091 -2.69724 7.43032 -0.144315 -70.1915 7.95139e-016 88.8779 -0.0310711 10.7595 1.96963 72.4319 71.8392 11.1451 13.1342 3.43533 0.764692 5.14303 20.4438 6.34836 29.8703 7.82586 -0.130764 -123.731 34.6153 155.908 9.52751 0.295786 -0.907742 173.993 78.1177 -143.879 27.5574 4.95586 2.47156 0.735535 -12.9251 -20.9943 1.20734 -0.998971 20.1238 -60.0528 29.4322 -142.779 26.8049 -0.0536703 -0.155908 22.0378 -3.64625 -98.1537 26.6817 -1.42109e-014 0.320147 3.18055e-015 3.57812e-015 -3.18055e-015 27.5927 4.71444 -2.65209 -1.71301 6.43279 41.1846 2.83739 -1.17114 -18.7564 -134.523 -3.03359 95.1202 28.839 -0.0548439 1.22491 11.5887 -2.59815 77.4266 26.5114 2.84217e-014 -0.101894 0.0339853 9.95845e-005 -0.0240845 -4.76168 -1.9167 -10.2353 -48.2242 15.3086 97.592 2.55951 -42.0585 -8.02213 -3.06686 44.057 -7.04638 3.16357 -42.5282 -3.95426 -0.600808 -12.8417 -1.10152 0.346054 -6.02161 12.8035 3.77723 -10.6633 13.495 -4.94151 -1.41743 10.6446 -43.9439 -14.8011 76.3343 -2.56294 -42.0364 -7.94377 1.20012 34.3941 -2.39688 -3.0952 -42.555 -4.02241 -4.43997 -3.48532 0.857714 -0.0828122 -6.13587 12.8035 0.083039 -6.49495 6.40483 
0 0 0 0 0 -0 -4.43887 93.0337 -5.6741 72.057 -25.6016 -6.21053 -2.69724 7.43032 -0.144315 -70.1915 -2.38542e-015 88.8779 -0.0310711 10.7595 1.96963 72.6991 71.7655 10.8487 13.1342 3.43533 0.764692 5.01359 20.3148 6.47346 29.8703 7.82586 -0.130764 -123.506 34.7802 156.635 9.52751 0.295786 -0.907742 171.009 77.8861 -140.696 27.5574 4.95586 2.47156 0.733531 -12.8709 -21.3359 1.20734 -0.998971 20.1238 -60.0757 29.3152 -142.399 26.8049 -0.0536703 -0.155908 21.9131 -3.61922 -98.1433 26.6817 -1.42109e-014 0.320147 -3.18055e-015 1.59028e-015 -4.77083e-015 27.5927 4.71444 -2.65209 -1.76754 6.6672 41.0196 2.83739 -1.17114 -18.7564 -134.418 -3.17835 94.9034 28.839 -0.0548439 1.22491 11.8835 -2.667 77.4214 26.5114 2.84217e-014 -0.101894 0.058423 0.000166753 -0.020064 -4.76168 -1.9167 -10.2353 -48.3094 15.2619 97.6069 2.55951 -42.0585 -8.02213 -3.03559 43.9423 -6.91491 3.16357 -42.5282 -3.95426 -0.148009 -12.7686 -1.10261 0.346054 -6.02161 12.8035 3.75387 -10.6333 13.5307 -4.94151 -1.41743 10.6446 -44.0763 -14.8311 76.3088 -2.56294 -42.0364 -7.94377 1.20495 34.2741 -2.43418 -3.0952 -42.555 -4.02241 -4.97479 -3.41064 0.908335 -0.0828122 -6.13587 12.8035 0.0866362 -6.58882 6.52758 
0 0 0 0 0 -0 -4.45959 93.0665 -5.66551 71.9825 -25.6072 -6.23296 -2.69724 7.43032 -0.144315 -70.1915 -7.15625e-015 88.8779 -0.0310711 10.7595 1.96963 71.8127 71.8023 11.6199 13.1342 3.43533 0.764692 5.24146 20.3637 6.66042 29.8703 7.82586 -0.130764 -123.646 34.8789 156.628 9.52751 0.295786 -0.907742 171.261 77.99 -141.001 27.5574 4.95586 2.47156 0.717915 -12.9626 -21.5296 1.20734 -0.998971 20.1238 -60.3471 29.2495 -142.362 26.8049 -0.0536703 -0.155908 22.457 -3.71973 -98.1466 26.6817 -2.84217e-014 0.320147 -3.18055e-015 1.19271e-015 -3.97569e-015 27.5927 4.71444 -2.65209 -1.77549 6.65016 41.2059 2.83739 -1.17114 -18.7564 -134.464 -2.82956 95.1663 28.839 -0.0548439 1.22491 11.5627 -2.62822 77.2686 26.5114 1.42109e-014 -0.101894 0.0881683 0.000244477 -0.015179 -4.76168 -1.9167 -10.2353 -48.2518 15.2713 97.6172 2.55951 -42.0585 -8.02213 -3.04224 43.9191 -7.00446 3.16357 -42.5282 -3.95426 -0.223463 -12.7443 -1.10543 0.346054 -6.02161 12.8035 3.71203 -10.5897 13.6793 -4.94151 -1.41743 10.6446 -44.0333 -14.8104 76.3273 -2.56294 -42.0364 -7.94377 1.2076 34.2178 -2.42156 -3.0952 -42.555 -4.02241 -4.59535 -3.48516 0.873186 -0.0828122 -6.13587 12.8035 0.0144177 -6.25569 6.63676 
0 0 0 0 0 -0 -4.44225 93.0587 -5.68532 71.9682 -25.6777 -6.2483 -2.69724 7.43032 -0.144315 -70.1915 -8.34896e-015 88.8779 -0.0310711 10.7595 1.96963 71.8667 71.8377 11.6162 13.1342 3.43533 0.764692 5.25266 20.4348 6.52752 29.8703 7.82586 -0.130764 -123.677 34.8245 156.413 9.52751 0.295786 -0.907742 171.868 78.045 -141.792 27.5574 4.95586 2.47156 0.728341 -12.8885 -21.4614 1.20734 -0.998971 20.1238 -60.3587 29.0139 -142.444 26.8049 -0.0536703 -0.155908 22.0286 -3.62943 -98.1176 26.6817 -2.84217e-014 0.320147 -3.18055e-015 -2.78299e-015 -6.36111e-015 27.5927 4.71444 -2.65209 -1.78397 6.64889 41.337 2.83739 -1.17114 -18.7564 -134.307 -2.71828 95.1902 28.839 -0.0548439 1.22491 11.5696 -2.66698 77.1059 26.5114 2.84217e-014 -0.101894 0.122473 0.000328897 -0.00955642 -4.76168 -1.9167 -10.2353 -48.2475 15.268 97.5693 2.55951 -42.0585 -8.02213 -3.0594 43.971 -7.06226 3.16357 -42.5282 -3.95426 -0.386749 -12.8843 -1.10848 0.346054 -6.02161 12.8035 3.67485 -10.5561 13.8411 -4.94151 -1.41743 10.6446 -44.0322 -14.7703 76.3927 -2.56294 -42.0364 -7.94377 1.21303 34.1781 -2.40764 -3.0952 -42.555 -4.02241 -4.35456 -3.67955 0.856783 -0.0828122 -6.13587 12.8035 -0.0591564 -5.91299 6.73493 
